# xmcd
#
# Track frame offsets: 
#        150
#        26578
#        39690
#        59814
#        77973
#        89694
#        112017
#        131117
#        157188
#        174647
#        195065
#        215403
#
# Disc length: 3078 seconds
#
# Revision: 0
# Processed by: cddbd v1.5.2PL0 Copyright (c) Steve Scherf et al.
# Submitted via: ExactAudioCopy v0.95b3
#
DISCID=b10c040c
DTITLE=Verlon Thompson - Live at the Ivey's [CD1]
DYEAR=2006
DGENRE=Country
TTITLE0=Intro/Satisfied Mind
TTITLE1=Rainbow of our Love
TTITLE2=I Need More Time
TTITLE3=Perfect Love
TTITLE4=I Was A Square
TTITLE5=Everywhere... Yet
TTITLE6=The Cape
TTITLE7=Lucky Dog
TTITLE8=He Left The Road
TTITLE9=Darwetta;s Mandolin
TTITLE10=Caddo Country
TTITLE11=Jow Walker's Mare
EXTD=
EXTT0=
EXTT1=
EXTT2=
EXTT3=
EXTT4=
EXTT5=
EXTT6=
EXTT7=
EXTT8=
EXTT9=
EXTT10=
EXTT11=
PLAYORDER=
